<svg xmlns="http://www.w3.org/2000/svg" width="116.295" height="70.884" viewBox="0 0 116.295 70.884">
  <path id="Icon_awesome-cc-visa" data-name="Icon awesome-cc-visa" d="M94.913,33.784s1.534,5.886,1.878,7.12H90.048c.666-1.408,3.23-6.883,3.23-6.883-.04.047.666-1.44,1.07-2.358l.565,2.12ZM116.295,9.845V65.539c0,4.193-4.341,7.595-9.691,7.595H9.691c-5.35,0-9.691-3.4-9.691-7.595V9.845C0,5.652,4.341,2.25,9.691,2.25H106.6C111.954,2.25,116.295,5.652,116.295,9.845ZM30.79,49.59,43.55,25.034H34.969L27.034,41.806l-.868-3.4-2.827-11.3c-.464-1.566-1.9-2.009-3.675-2.073H6.6l-.141.49a37.5,37.5,0,0,1,8.52,2.706l7.228,21.36Zm19.059.032,5.088-24.588H46.821L41.753,49.622h8.1ZM78.1,41.584c.04-2.8-2.14-4.937-6.8-6.693-2.847-1.123-4.583-1.883-4.583-3.038.04-1.044,1.474-2.12,4.664-2.12a17.252,17.252,0,0,1,6.037.934l.727.269,1.11-5.316a25.118,25.118,0,0,0-7.268-1.044c-8.015,0-13.648,3.354-13.689,8.133-.061,3.528,4.038,5.49,7.107,6.677,3.129,1.2,4.2,1.994,4.2,3.054-.04,1.646-2.544,2.4-4.866,2.4a19.966,19.966,0,0,1-7.612-1.313l-1.07-.4-1.131,5.522a30.854,30.854,0,0,0,9.045,1.313C72.482,49.986,78.034,46.679,78.1,41.584ZM106.6,49.622l-6.542-24.588H93.783c-1.938,0-3.412.443-4.24,2.041L77.489,49.622h8.52s1.393-3.038,1.7-3.687H98.124c.242.87.969,3.687.969,3.687Z" transform="translate(0 -2.25)" fill="#141232"/>
</svg>
