<svg xmlns="http://www.w3.org/2000/svg" width="106.326" height="70.884" viewBox="0 0 106.326 70.884">
  <path id="Icon_metro-mastercard" data-name="Icon metro-mastercard" d="M33.536,47.439h-.6q-2.169,0-2.169,1.477,0,1.015.923,1.015a1.542,1.542,0,0,0,1.292-.692A3.2,3.2,0,0,0,33.536,47.439Zm18.229-1.661h2.861v-.138a.709.709,0,0,0,.023-.3q-.023-.115-.046-.323a1.3,1.3,0,0,0-.092-.369.959.959,0,0,0-.208-.3,1.132,1.132,0,0,0-.346-.231,1.316,1.316,0,0,0-.531-.092q-1.292,0-1.661,1.754Zm24.92,1.661h-.554q-2.215,0-2.215,1.477,0,1.015.923,1.015a1.542,1.542,0,0,0,1.292-.692A3.2,3.2,0,0,0,76.685,47.439Zm14.721-1.2q0-1.892-1.384-1.892a1.637,1.637,0,0,0-1.431.923,4.518,4.518,0,0,0-.554,2.354q0,1.938,1.292,1.938a1.72,1.72,0,0,0,1.5-.923A4.471,4.471,0,0,0,91.406,46.239ZM24.722,39.732h4.015L26.706,51.823H24.122L25.6,42.547l-3.277,9.276h-1.8l-.185-9.23-1.569,9.23H16.323l2.031-12.091h3.738l.092,7.522ZM36.4,44.67q0,.277-.185,1.938-.738,4.661-.785,5.215H33.259l.046-1.015a3.172,3.172,0,0,1-2.677,1.2,2.228,2.228,0,0,1-1.731-.738,2.775,2.775,0,0,1-.669-1.938,3.421,3.421,0,0,1,1.2-2.792,5.145,5.145,0,0,1,3.369-.992,9.953,9.953,0,0,1,1.061.046,1.3,1.3,0,0,1,.023-.254q.023-.115.046-.208a.636.636,0,0,0,.023-.138q0-.923-1.661-.923a8.577,8.577,0,0,0-2.723.461q0-.185.323-2.215a11.3,11.3,0,0,1,3.092-.508q3.415,0,3.415,2.861Zm7.2-2.677-.369,2.261a14.059,14.059,0,0,0-1.892-.138q-1.246,0-1.246.785a.7.7,0,0,0,.208.554,4.172,4.172,0,0,0,.992.508,2.9,2.9,0,0,1,1.846,2.769q0,3.323-4.015,3.276a11.18,11.18,0,0,1-2.677-.277q0-.092.323-2.261a9,9,0,0,0,2.354.369q1.477,0,1.477-.877a.719.719,0,0,0-.208-.531,4.124,4.124,0,0,0-.992-.577,2.932,2.932,0,0,1-1.984-2.723q0-3.323,3.876-3.323A12.047,12.047,0,0,1,43.6,41.993Zm4.061,0H48.95l-.323,2.4H47.289q-.092.785-.3,1.869t-.323,1.777a8.193,8.193,0,0,0-.115.831q0,.738.877.738a3.034,3.034,0,0,0,.738-.092L47.8,51.684a5.837,5.837,0,0,1-1.846.323q-1.984,0-2.077-2.169a19.95,19.95,0,0,1,.369-2.584q.138-.923,1.154-6.738h2.538Zm9.368,3.369a10.341,10.341,0,0,1-.323,2.4H51.58a1.58,1.58,0,0,0,.461,1.523,2.649,2.649,0,0,0,1.754.508,5.915,5.915,0,0,0,2.677-.646l-.415,2.492a10.216,10.216,0,0,1-2.63.369q-4.384,0-4.384-4.384a6.62,6.62,0,0,1,1.269-4.176,3.9,3.9,0,0,1,3.207-1.638,3.415,3.415,0,0,1,2.561.969,3.541,3.541,0,0,1,.946,2.584Zm6.415-3.415a10.882,10.882,0,0,0-1.015,2.861q-1.015-.092-1.431,1.108a46.712,46.712,0,0,0-1.154,5.907H57.257l.138-.646q1.015-6,1.338-9.184h2.354l-.138,1.523a5.509,5.509,0,0,1,1.177-1.361,1.526,1.526,0,0,1,1.315-.208Zm8.63-1.892-.415,2.63a5.269,5.269,0,0,0-2.307-.646,2.8,2.8,0,0,0-2.354,1.269,5.394,5.394,0,0,0-.923,3.253,3.4,3.4,0,0,0,.623,2.169,2.137,2.137,0,0,0,1.777.785,5.217,5.217,0,0,0,2.215-.6l-.461,2.723a8.509,8.509,0,0,1-2.307.369,4.148,4.148,0,0,1-3.3-1.408,5.6,5.6,0,0,1-1.223-3.807,8.212,8.212,0,0,1,1.638-5.284,5.159,5.159,0,0,1,4.223-2.054,8.274,8.274,0,0,1,2.815.6Zm7.476,4.615a11.982,11.982,0,0,1-.185,1.938q-.6,3.646-.784,5.215H76.454l.046-1.015a3.223,3.223,0,0,1-2.723,1.2,2.158,2.158,0,0,1-1.708-.738,2.837,2.837,0,0,1-.646-1.938A3.451,3.451,0,0,1,72.6,46.539a5.049,5.049,0,0,1,3.346-.992,9.186,9.186,0,0,1,1.061.046,2.193,2.193,0,0,0,.092-.6q0-.923-1.661-.923a8.577,8.577,0,0,0-2.723.461q0-.185.369-2.215a11.305,11.305,0,0,1,3.092-.508q3.369,0,3.369,2.861Zm6.507-2.723a8.892,8.892,0,0,0-.969,2.861A1.329,1.329,0,0,0,83.63,45.87a52.019,52.019,0,0,0-1.177,5.953H79.869l.138-.646q.877-4.8,1.338-9.184h2.4a9.363,9.363,0,0,1-.185,1.523,6.208,6.208,0,0,1,1.223-1.361,1.445,1.445,0,0,1,1.269-.208Zm6.507-2.215h2.584L93.16,51.823H90.714l.138-.877a3.312,3.312,0,0,1-2.4,1.061A2.738,2.738,0,0,1,86.169,50.9a4.712,4.712,0,0,1-.854-2.953A7.178,7.178,0,0,1,86.584,43.7a3.626,3.626,0,0,1,2.977-1.8,3,3,0,0,1,2.446,1.338Zm5.122,6A25.105,25.105,0,0,0,57.441,25.7a26.459,26.459,0,0,1,7.891,13.106H63.025a24.848,24.848,0,0,0-7.291-11.676,24.848,24.848,0,0,0-7.291,11.676H46.135A26.459,26.459,0,0,1,54.026,25.7,25.2,25.2,0,0,0,26.268,24,25.237,25.237,0,0,0,17.13,58.33,25.055,25.055,0,0,0,38.889,70.836a24.657,24.657,0,0,0,15.137-5.076,26.542,26.542,0,0,1-7.615-12.183h2.307a24.64,24.64,0,0,0,7.015,10.753,24.64,24.64,0,0,0,7.015-10.753h2.307a26.54,26.54,0,0,1-7.615,12.183A25.061,25.061,0,0,0,97.682,45.731ZM108.9,16.2v59.07a5.989,5.989,0,0,1-5.907,5.907H8.478A5.677,5.677,0,0,1,4.324,79.42a5.676,5.676,0,0,1-1.754-4.153V16.2a5.677,5.677,0,0,1,1.754-4.153,5.676,5.676,0,0,1,4.153-1.754H102.99a5.677,5.677,0,0,1,4.153,1.754A5.676,5.676,0,0,1,108.9,16.2Z" transform="translate(-2.571 -10.289)" fill="#141232"/>
</svg>
