<svg xmlns="http://www.w3.org/2000/svg" width="115.501" height="70.884" viewBox="0 0 115.501 70.884">
  <path id="Icon_awesome-cc-paypal" data-name="Icon awesome-cc-paypal" d="M37.358,38.04c0,1.93-1.945,3.4-4.412,3.4-1.845,0-3.208-.823-3.208-2.373,0-1.93,1.9-3.481,4.351-3.481C35.954,35.588,37.358,36.49,37.358,38.04ZM16.142,30.366H15.2a.6.6,0,0,0-.642.427L13.7,35.018l1.644-.047c2.206,0,3.91-.237,4.311-2.247C20.112,30.6,18.408,30.366,16.142,30.366Zm56.949,0h-.9c-.361,0-.6.158-.642.427L70.7,35.018l1.6-.047c2.607,0,4.412-.475,4.412-2.848C76.7,30.445,74.8,30.366,73.091,30.366ZM115.5,9.845V65.539c0,4.193-4.311,7.595-9.625,7.595H9.625C4.311,73.134,0,69.732,0,65.539V9.845C0,5.652,4.311,2.25,9.625,2.25h96.251C111.19,2.25,115.5,5.652,115.5,9.845ZM25.727,31.268c0-3.323-3.248-4.43-6.958-4.43H10.748a1,1,0,0,0-1.043.744L6.417,43.736a.594.594,0,0,0,.642.633h3.81a1.164,1.164,0,0,0,1.1-.9l.9-4.209c.2-1.139,2.647-.744,3.609-.744,5.735,0,9.244-2.69,9.244-7.247Zm16.884,1.392H38.8c-.762,0-.8.87-.842,1.3-1.163-1.345-2.847-1.582-4.752-1.582-4.913,0-8.663,3.4-8.663,7.152,0,3.085,2.446,5.095,6.357,5.095a8.877,8.877,0,0,0,5.314-1.883,3.42,3.42,0,0,0-.2.981.582.582,0,0,0,.642.633H40.1a1.2,1.2,0,0,0,1.1-.9l2.045-10.174C43.313,32.977,43.012,32.661,42.611,32.661Zm8.121,15.49L63.506,33.5a.281.281,0,0,0,.1-.269.639.639,0,0,0-.642-.554h-3.85a1.233,1.233,0,0,0-.9.4L52.9,39.243l-2.206-5.933a1.226,1.226,0,0,0-1.1-.633H45.84a.639.639,0,0,0-.642.554c0,.19,3.91,8.987,4.251,9.826-.541.6-4.111,4.525-4.111,5a.591.591,0,0,0,.642.506h3.85a1.271,1.271,0,0,0,.9-.411ZM82.676,31.268c0-3.323-3.248-4.43-6.958-4.43H67.757a1.057,1.057,0,0,0-1.1.744L63.405,43.72a.616.616,0,0,0,.642.633h4.111a.841.841,0,0,0,.8-.506l.9-4.588c.2-1.139,2.647-.744,3.609-.744C79.167,38.515,82.676,35.825,82.676,31.268ZM99.56,32.661H95.75c-.762,0-.8.87-.862,1.3-1.1-1.345-2.807-1.582-4.752-1.582-4.913,0-8.663,3.4-8.663,7.152,0,3.085,2.446,5.095,6.357,5.095a8.6,8.6,0,0,0,5.314-1.883,5.681,5.681,0,0,0-.2.981.582.582,0,0,0,.642.633h3.469a1.2,1.2,0,0,0,1.1-.9L100.2,33.278c.06-.3-.241-.617-.642-.617Zm9.525-5.269a.6.6,0,0,0-.642-.554h-3.71a.64.64,0,0,0-.642.427L100.843,43.72l-.06.079a.647.647,0,0,0,.7.554h3.309a1.114,1.114,0,0,0,1.043-.9l3.248-16.012v-.047Zm-18.047,8.2c-2.446,0-4.351,1.535-4.351,3.481,0,1.535,1.4,2.373,3.248,2.373,2.406,0,4.351-1.456,4.351-3.4.02-1.551-1.384-2.452-3.248-2.452Z" transform="translate(0 -2.25)" fill="#141232"/>
</svg>
