<svg xmlns="http://www.w3.org/2000/svg" width="128.882" height="70.884" viewBox="0 0 128.882 70.884">
  <path id="Icon_payment-american-express" data-name="Icon payment-american-express" d="M3.973,87.234v-37.9h6.208l1.4-3.412h3.076l1.4,3.412H28.248V46.758l1.063,2.573h6.32l1.12-2.628v2.628H67.013V43.793l.56-.057c.5,0,.558.393.558.784v4.81H83.739V48.045c3.636,1.9,8.614,1.286,12.417,1.286l1.4-3.412h3.133l1.4,3.412h12.7V46.087l1.9,3.244h10.18V28.186H116.8v2.461l-1.4-2.461H105.052v2.461l-1.286-2.461H89.838a12.7,12.7,0,0,0-6.1,1.23v-1.23H74.118v1.23a5.914,5.914,0,0,0-4.083-1.23H34.905l-2.4,5.426L30.1,28.186H19.019v2.461l-1.23-2.461H8.337L3.973,38.2V16.35h128.88v37.9h-6.711a7.6,7.6,0,0,0-4.531,1.231V54.253h-9.9c-1.4,0-3.3.222-4.364,1.231V54.253H89.669v1.231A8.787,8.787,0,0,0,84.8,54.253H73.112v1.231c-1.174-1.119-3.58-1.231-5.09-1.231H54.933L51.913,57.5l-2.8-3.244H29.594V75.4H48.778l3.076-3.3,2.909,3.3h11.8V70.419H67.74a12.936,12.936,0,0,0,5.034-.727V75.4h9.732V69.859h.448c.558,0,.672.057.672.672V75.4h29.59a8.385,8.385,0,0,0,4.922-1.343V75.4h9.4a12.3,12.3,0,0,0,5.315-.951V87.234H3.973Zm39.1-40.924H39.382V34.451L34.124,46.31H30.936L25.679,34.451V46.31H18.294l-1.4-3.357H9.343l-1.4,3.357H4.03L10.518,31.15h5.37l6.152,14.377V31.15h5.93l4.755,10.292L37.033,31.15h6.04V46.31ZM15.609,39.821,13.091,33.78,10.63,39.821Zm47.77,27.521v5.091H56.331L51.856,67.4l-4.643,5.034H32.894V57.274H47.436l4.476,4.979L56.5,57.274H68.078c3.412,0,6.1,1.175,6.1,4.979,0,6.1-6.657,5.09-10.8,5.09ZM49.506,64.824,45.59,60.406H36.473v2.742h7.943v3.076H36.473v3.021h8.895l4.138-4.42ZM57.9,46.31H45.759V31.15H57.9v3.188h-8.5v2.742h8.279v3.076H49.394v3.021h8.5Zm1.846,24.724V58.9L54.2,64.881ZM72.384,39.318c2.07.727,2.406,2.015,2.406,4.028v2.966H71.154c-.057-3.244.783-5.482-3.244-5.482H63.995v5.482h-3.58V31.15l8.559.057c2.909,0,5.984.447,5.984,4.028a4.366,4.366,0,0,1-2.573,4.083ZM68.077,60.406h-4.7v3.86h4.643c1.287,0,2.292-.615,2.292-2.015,0-1.343-1.005-1.846-2.237-1.846Zm.5-26.067H63.994V37.7h4.531c1.231,0,2.406-.279,2.406-1.734C70.931,34.563,69.7,34.339,68.581,34.339Zm19.3,31.046c2.015.727,2.406,2.07,2.406,4.028v3.021H86.65V69.916c0-2.575-.839-3.021-3.244-3.021h-3.86v5.539H75.909V57.274h8.614c2.852,0,5.93.5,5.93,4.084a4.257,4.257,0,0,1-2.573,4.026ZM80.719,46.31H77.027V31.15h3.692Zm3.414,14.1H79.545v3.412h4.531c1.231,0,2.4-.279,2.4-1.791,0-1.4-1.229-1.622-2.348-1.622Zm39.491-14.1h-5.146l-6.825-11.356V46.31h-7.385l-1.455-3.357h-7.5l-1.4,3.357H89.726c-4.979,0-7.217-2.575-7.217-7.44,0-5.09,2.294-7.719,7.44-7.719h3.524v3.3c-3.8-.057-7.271-.9-7.271,4.307,0,2.573.615,4.364,3.524,4.364h1.622l5.146-11.914h5.427l6.1,14.32V31.207h5.537l6.377,10.516V31.207h3.692v15.1ZM104.549,72.433H92.466V57.274h12.083v3.133H96.1v2.742h8.279v3.076H96.1v3.021l8.447.055Zm-2.964-32.612L99.123,33.78l-2.518,6.041Zm12.195,32.612h-7.049V69.19h7.049c.895,0,1.9-.224,1.9-1.4,0-3.244-9.341,1.231-9.341-5.985,0-3.076,2.349-4.531,5.146-4.531h7.273v3.188H112.1c-.951,0-2.014.169-2.014,1.4,0,3.3,9.4-1.51,9.4,5.761,0,3.578-2.461,4.81-5.7,4.81Zm19.075-1.958c-1.063,1.567-3.133,1.958-4.922,1.958h-6.993V69.19h6.992c.9,0,1.846-.279,1.846-1.4,0-3.188-9.341,1.231-9.341-5.985,0-3.076,2.406-4.531,5.2-4.531h7.216v3.188h-6.6c-1.007,0-2.014.169-2.014,1.4,0,2.685,6.321-.055,8.614,2.964v5.65Z" transform="translate(-3.973 -16.35)" fill="#141232"/>
</svg>
